# xmcd
#
# Track frame offsets:
#	150
#	12136
#	28759
#	40171
#	53226
#	65869
#	77714
#	88729
#	107689
#	123302
#
# Disc length: 1831 seconds
#
# Revision: 1
# Processed by: cddbd v1.5.2PL0 Copyright (c) Steve Scherf et al.
# Submitted via: audiograbber 1.83.01
#
DISCID=7f07250a
DTITLE=Carsie Blanton - So Ferocious
DYEAR=2016
DGENRE=Cabaret
TTITLE0=Hot Night
TTITLE1=Vim and Vigor
TTITLE2=So Ferocious
TTITLE3=Lovin is Easy
TTITLE4=Ravenous
TTITLE5=Fat and Happy
TTITLE6=Scoundrel
TTITLE7=To Be Known
TTITLE8=The Animal I Am
TTITLE9=Fever Dream
EXTD=
EXTT0=
EXTT1=
EXTT2=
EXTT3=
EXTT4=
EXTT5=
EXTT6=
EXTT7=
EXTT8=
EXTT9=
PLAYORDER=
